<svg width="260" height="260" viewBox="0 0 260 260" fill="none" xmlns="http://www.w3.org/2000/svg">
<path fill-rule="evenodd" clip-rule="evenodd" d="M25 36C25 24.402 34.402 15 46 15H214C225.598 15 235 24.402 235 36V89.6038C227.987 83.2351 219.343 77.5449 209.416 72.7376V62.6497C209.416 51.0518 200.014 41.6497 188.416 41.6497H71.5838C59.9858 41.6497 50.5838 51.0517 50.5838 62.6497V72.7376C40.6571 77.5449 32.0134 83.2351 25 89.6038V36ZM25 169.396V223.188C25 234.786 34.402 244.188 46 244.188H50.5838V186.262C40.6571 181.455 32.0134 175.765 25 169.396ZM209.416 186.262V244.188H214C225.598 244.188 235 234.786 235 223.188V169.396C227.987 175.765 219.343 181.455 209.416 186.262Z" fill="#1A1A1A"/>
<path fill-rule="evenodd" clip-rule="evenodd" d="M122.265 74.0195C89.1482 74.8027 65.8584 96.4423 58.3531 107.164C53.6448 106.139 41.6829 109.709 31.5017 132.197C21.3206 154.685 35.7439 164.596 44.2282 166.741H44.9088C44.1032 164.18 43.6688 161.456 43.6688 158.629C43.6688 143.722 55.7532 131.638 70.66 131.638C85.5668 131.638 97.6512 143.722 97.6512 158.629C97.6512 161.456 97.2168 164.18 96.4111 166.741H158.468C157.662 164.18 157.228 161.456 157.228 158.629C157.228 143.722 169.312 131.638 184.219 131.638C199.126 131.638 211.21 143.722 211.21 158.629C211.21 161.455 210.776 164.178 209.971 166.738C229.953 163.94 234.005 158.482 231.209 136.533C228.971 118.968 196.665 110.054 180.583 107.164C175.082 96.2092 155.382 73.2364 122.265 74.0195ZM64.926 113.597H174.149C170.793 103.435 155.521 83.0819 121.286 82.97C87.0504 82.8581 69.4479 103.342 64.926 113.597Z" fill="#EA3800"/>
<path d="M92.6165 159.049C92.6165 171.252 82.7236 181.145 70.5201 181.145C58.3165 181.145 48.4236 171.252 48.4236 159.049C48.4236 146.845 58.3165 136.952 70.5201 136.952C82.7236 136.952 92.6165 146.845 92.6165 159.049Z" fill="#EA3800"/>
<path d="M206.735 159.049C206.735 171.252 196.842 181.145 184.638 181.145C172.435 181.145 162.542 171.252 162.542 159.049C162.542 146.845 172.435 136.952 184.638 136.952C196.842 136.952 206.735 146.845 206.735 159.049Z" fill="#EA3800"/>
</svg>
