<svg width="116" height="179" viewBox="0 0 116 179"
     fill="none" xmlns="http://www.w3.org/2000/svg">
<path d="M0.102274 179V0.818177H57.6112C70.2556 0.818177
80.8119 3.25426 89.2802 8.12642C97.8065 12.9406
104.216 19.4948 108.508 27.7891C112.858 36.0833
115.033 45.4216 115.033 55.804C115.033 66.1863 112.887
75.5536 108.595 83.9059C104.303 92.2002 97.9225 98.7834
89.4542 103.656C80.9859 108.47 70.4586 110.877 57.8722
110.877H12.6307V96.2603H57.4371C66.7755 96.2603 74.5187
94.5202 80.6669 91.0401C86.8151 87.502 91.3973 82.6879
94.4134 76.5977C97.4875 70.5075 99.0245 63.5762 99.0245
55.804C99.0245 48.0317 97.4875 41.1005 94.4134
35.0103C91.3973 28.9201 86.7861 24.1349 80.5799
20.6548C74.4317 17.1747 66.6304 15.4346 57.1761
15.4346H16.3718V179H0.102274Z"
      fill="#F3DBD3"/>
</svg>
